<?xml version="1.0" encoding="UTF-8"?>
<svg id="Layer_1" xmlns="http://www.w3.org/2000/svg" version="1.1" viewBox="0 0 800 800">
  <!-- Generator: Adobe Illustrator 30.0.0, SVG Export Plug-In . SVG Version: 2.1.1 Build 123)  -->
  <defs>
    <style>
      .st0 {
        fill: #00594f;
      }
    </style>
  </defs>
  <path class="st0" d="M466.67,166.67c-18.41,0-33.33-14.92-33.33-33.33s14.92-33.33,33.33-33.33h200c18.41,0,33.33,14.92,33.33,33.33v200c0,18.41-14.92,33.33-33.33,33.33s-33.33-14.92-33.33-33.33v-119.53l-309.77,309.77c-13.24,12.79-34.34,12.42-47.13-.82-12.48-12.92-12.48-33.4,0-46.31l309.77-309.77h-119.53ZM100,233.33c0-36.82,29.85-66.67,66.67-66.67h166.67c18.41,0,33.33,14.92,33.33,33.33s-14.92,33.33-33.33,33.33h-166.67v400h400v-166.67c0-18.41,14.92-33.33,33.33-33.33s33.33,14.92,33.33,33.33v166.67c0,36.82-29.85,66.67-66.67,66.67H166.67c-36.82,0-66.67-29.85-66.67-66.67V233.33Z"/>
</svg>